<svg width="90" height="374" viewBox="30 44 120 418" fill="none" xmlns="http://www.w3.org/2000/svg">
<path d="M42.0234 373.619C44.3949 373.67 46.9933 373.897 49.8188 374.3C52.5939 374.704 55.4447 375.183 58.3711 375.738V378.841C54.0319 379.75 50.9793 380.557 49.2134 381.263C47.4474 381.97 46.5645 383.332 46.5645 385.35V412.975L40.2827 410.931V375.738L42.0234 373.619ZM46.5645 437.042C46.5645 438.001 46.842 438.858 47.397 439.615C47.9015 440.322 49.0116 441.104 50.7271 441.961C52.4425 442.819 55.1167 443.954 58.7495 445.367L57.4629 448.319C54.7383 448.117 51.8118 447.814 48.6836 447.411C45.5553 447.007 42.755 446.553 40.2827 446.048V402.379L46.5645 400.411V437.042ZM128 427.657H125.048C124.191 423.368 123.308 420.392 122.399 418.727C121.491 417.062 120.709 416.229 120.053 416.229H46.1104C45.5553 416.229 45.1265 417.087 44.8237 418.802C44.4705 420.467 43.966 422.99 43.3101 426.371H40.2827V395.113H43.3101C43.966 398.242 44.4453 400.689 44.748 402.455C45.0003 404.221 45.4544 405.104 46.1104 405.104H120.053C120.608 405.104 121.365 404.271 122.324 402.606C123.282 400.941 124.191 397.964 125.048 393.675H128V427.657ZM128 335.075H125.048C124.392 331.947 123.686 329.5 122.929 327.734C122.122 325.917 121.416 325.009 120.81 325.009H47.624C47.069 325.009 46.3879 325.867 45.5806 327.582C44.7228 329.247 43.966 331.745 43.3101 335.075H40.2827V303.742H43.3101C43.966 306.87 44.6724 309.343 45.4292 311.159C46.186 312.925 46.9176 313.808 47.624 313.808H120.81C121.365 313.808 122.046 312.975 122.854 311.31C123.661 309.595 124.392 307.072 125.048 303.742H128V335.075ZM85.2388 369.435H78.957V323.571H85.2388V369.435ZM128 388.659H125.048C124.392 385.531 123.686 383.084 122.929 381.318C122.122 379.501 121.416 378.593 120.81 378.593H47.624C47.069 378.593 46.3879 379.451 45.5806 381.166C44.7228 382.831 43.966 385.329 43.3101 388.659H40.2827V357.326H43.3101C43.966 360.454 44.6724 362.927 45.4292 364.743C46.186 366.559 46.9176 367.468 47.624 367.468H120.81C121.365 367.468 122.046 366.635 122.854 364.97C123.661 363.255 124.392 360.707 125.048 357.326H128V388.659ZM130.043 272.736C130.043 280.153 127.95 286.485 123.762 291.733C119.574 296.98 114.099 300.991 107.338 303.766C100.527 306.491 93.2108 307.853 85.3901 307.853C79.0832 307.853 73.1042 306.844 67.4531 304.826C61.7516 302.808 56.7061 300.007 52.3164 296.425C47.9268 292.843 44.4958 288.68 42.0234 283.937C39.5007 279.194 38.2393 274.098 38.2393 268.649C38.2393 262.897 39.5007 257.851 42.0234 253.512C44.4958 249.123 47.8511 245.465 52.0894 242.538C56.3276 239.561 61.1209 237.316 66.4692 235.802C71.7671 234.289 77.2668 233.532 82.9683 233.532C89.2752 233.532 95.2542 234.566 100.905 236.635C106.556 238.704 111.577 241.554 115.966 245.187C120.356 248.82 123.812 253.008 126.335 257.751C128.807 262.443 130.043 267.438 130.043 272.736ZM121.794 270.692C121.794 263.023 118.615 256.716 112.258 251.772C105.9 246.776 96.5661 244.279 84.2549 244.279C77.847 244.279 71.7419 245.389 65.9395 247.609C60.137 249.779 55.3942 252.856 51.7109 256.842C48.0277 260.778 46.186 265.395 46.186 270.692C46.186 278.917 49.5666 285.375 56.3276 290.067C63.0382 294.76 72.0698 297.106 83.4224 297.106C90.3348 297.106 96.7174 295.895 102.57 293.473C108.373 291.051 113.04 287.847 116.572 283.861C120.053 279.825 121.794 275.435 121.794 270.692ZM128 163.7H125.048C124.392 160.572 123.686 157.999 122.929 155.98C122.122 153.912 121.416 152.877 120.81 152.877L47.4727 153.559L43.5371 142.811L120.81 142.055C121.365 142.055 122.046 141.222 122.854 139.557C123.661 137.842 124.392 135.319 125.048 131.989H128V163.7ZM43.3101 133.351C43.3101 135.42 43.8398 137.842 44.8994 140.617C45.959 143.392 47.2961 145.94 48.9106 148.261C50.4748 150.531 52.0641 151.994 53.6787 152.65L128 183.983V184.286C122.147 185.396 118.035 185.901 115.664 185.8C113.242 185.699 111.274 185.346 109.76 184.74L46.186 157.721C43.3605 156.561 41.6702 155.753 41.1152 155.299C40.5602 154.845 40.2827 154.189 40.2827 153.331V133.351H43.3101ZM109.685 183.983C111.097 183.378 113.04 182.999 115.512 182.848C117.985 182.646 122.147 183.126 128 184.286V187.389L54.1328 219.252C51.3073 220.463 49.1125 222.103 47.5483 224.171C45.9842 226.24 44.8994 228.384 44.2939 230.604C43.638 232.774 43.3101 234.717 43.3101 236.432H40.2827V216.527C40.2827 215.619 40.6359 214.938 41.3423 214.484C42.0487 213.979 43.6632 213.172 46.186 212.062L109.685 183.983ZM128 237.113H125.048C124.392 233.985 123.686 231.538 122.929 229.772C122.122 227.955 121.416 227.047 120.81 227.047L44.748 226.366L43.0073 218.268L120.81 219.025C121.365 219.025 122.046 218.192 122.854 216.527C123.661 214.812 124.392 212.289 125.048 208.959H128V237.113ZM97.0454 113.849L120.28 121.569C121.693 122.023 122.753 121.392 123.459 119.676C124.115 117.961 124.645 115.211 125.048 111.427H128V140.338H125.048C124.493 137.21 123.913 134.712 123.308 132.845C122.702 130.979 121.693 129.818 120.28 129.364L41.8721 103.48C40.7116 102.37 39.6772 101.033 38.769 99.4689C37.8104 97.9048 37.0031 96.5173 36.3472 95.3063L120.28 66.0925C121.542 65.6384 122.576 64.7554 123.383 63.4435C124.14 62.0812 124.695 59.9116 125.048 56.9348H128V86.3757H125.048C124.796 82.7933 124.342 80.2958 123.686 78.883C122.98 77.4198 121.844 76.9657 120.28 77.5207L97.0454 85.4675V113.849ZM90.7637 87.5866L54.9653 99.8474L90.7637 111.73V87.5866ZM53.9058 15.9778L53.4517 18.4754C50.3739 21.0486 48.2547 23.8489 47.0942 26.8763C45.8833 29.8532 45.2778 32.6787 45.2778 35.3528C45.2778 38.7838 45.9338 41.5841 47.2456 43.7537C48.507 45.8729 50.0964 47.437 52.0137 48.4461C53.8805 49.4552 55.6969 49.9598 57.4629 49.9598C60.3893 49.9598 62.8869 48.9254 64.9556 46.8568C67.0243 44.7376 68.9163 42.013 70.6318 38.6829C72.3473 35.3528 74.0881 31.8209 75.854 28.0872C77.62 24.3535 79.6382 20.8216 81.9087 17.4915C84.1792 14.1614 86.929 11.4621 90.1582 9.39337C93.3369 7.27423 97.222 6.21466 101.813 6.21466C105.9 6.21466 110.139 7.34991 114.528 9.62042C118.868 11.8909 122.551 15.3219 125.578 19.9134C128.555 24.4544 130.043 30.2316 130.043 37.2449C130.043 40.3227 129.438 43.8546 128.227 47.8406C127.016 51.8266 125.376 55.4595 123.308 58.7391C123.055 59.1427 121.819 59.4455 119.599 59.6473C117.329 59.7986 114.831 59.7986 112.106 59.6473C109.331 59.4959 107.111 59.1932 105.446 58.7391L105.825 55.8631C111.274 53.744 115.31 50.6409 117.934 46.554C120.507 42.4671 121.794 38.0522 121.794 33.3094C121.794 30.5343 121.062 27.7845 119.599 25.0599C118.085 22.3353 116.092 20.09 113.62 18.324C111.097 16.5076 108.373 15.5994 105.446 15.5994C101.662 15.5994 98.5591 16.659 96.1372 18.7781C93.6649 20.8468 91.5457 23.5462 89.7798 26.8763C88.0138 30.1559 86.3236 33.6373 84.709 37.3206C83.0944 41.0039 81.3032 44.5106 79.3354 47.8406C77.3172 51.1203 74.8449 53.8196 71.9185 55.9388C68.9416 58.0075 65.2078 59.0418 60.7173 59.0418C57.7909 59.0418 54.5869 58.1588 51.1055 56.3929C47.624 54.5765 44.6219 51.6248 42.0991 47.5379C39.5259 43.451 38.2393 38.027 38.2393 31.2659C38.2393 27.0276 38.8447 22.9407 40.0557 19.0052C41.2666 15.0696 42.7803 12.2441 44.5967 10.5286C44.9499 10.0745 45.7572 10.1754 47.0186 10.8314C48.2295 11.4368 49.5161 12.2693 50.8784 13.3289C52.1903 14.338 53.1994 15.221 53.9058 15.9778Z" fill="black"/>
<line x1="28" y1="460.5" x2="149" y2="460.5" stroke="black" stroke-width="3"/>
<path d="M37.252 495.34C36.3835 495.34 35.515 495.312 34.6465 495.255C33.778 495.198 32.9284 495.113 32.0977 495C31.2669 494.868 30.4645 494.736 29.6904 494.604V476.309C30.8799 476.101 32.0788 475.931 33.2871 475.799C34.5143 475.648 35.7699 475.572 37.0537 475.572C39.055 475.572 40.8109 475.978 42.3213 476.79C43.8317 477.602 45.0023 478.735 45.833 480.188C46.6826 481.642 47.1074 483.351 47.1074 485.314C47.1074 486.712 46.8809 488.024 46.4277 489.251C45.9746 490.459 45.3232 491.526 44.4736 492.451C43.624 493.357 42.5856 494.065 41.3584 494.575C40.1501 495.085 38.7812 495.34 37.252 495.34ZM37.1387 491.658C38.3848 491.658 39.4515 491.384 40.3389 490.837C41.2262 490.289 41.9059 489.553 42.3779 488.628C42.8499 487.684 43.0859 486.627 43.0859 485.456C43.0859 484.248 42.8499 483.181 42.3779 482.256C41.9059 481.312 41.2262 480.576 40.3389 480.047C39.4515 479.518 38.3848 479.254 37.1387 479.254C36.5723 479.254 35.9775 479.282 35.3545 479.339C34.7503 479.396 34.1745 479.471 33.627 479.565V491.347C34.1934 491.46 34.7786 491.545 35.3828 491.602C36.0059 491.639 36.5911 491.658 37.1387 491.658ZM49.2088 495L57.9314 475.884H59.9139L68.6365 495H64.0203L58.951 482.312L53.825 495H49.2088ZM53.5701 491.318V488.118H64.2186V491.318H53.5701ZM88.3248 495.142L77.0816 483.7V495H73.1451V475.884H74.5611L85.8043 487.495V476.025H89.7408V495.142H88.3248ZM99.7719 495V476.025H103.708V495H99.7719ZM96.4301 495V491.602H107.05V495H96.4301ZM96.4301 479.424V476.025H107.05V479.424H96.4301ZM113.739 495V476.025H127.248V479.424H117.676V491.517H127.248V495H113.739ZM116.033 486.985V483.672H126.144V486.985H116.033ZM133.371 495V476.025H137.308V491.46H146.653V495H133.371Z" fill="black"/>
</svg>
